<mxfile host="app.diagrams.net" agent="Mozilla/5.0 (Windows NT 10.0; Win64; x64) AppleWebKit/537.36 (KHTML, like Gecko) Chrome/137.0.0.0 Safari/537.36" version="27.1.1" pages="3">
  <diagram name="Дружба" id="W-7wg44ac-afaW_4Xc-f">
    <mxGraphModel grid="1" page="1" gridSize="10" guides="1" tooltips="1" connect="1" arrows="1" fold="1" pageScale="1" pageWidth="827" pageHeight="1169" math="0" shadow="0">
      <root>
        <mxCell id="0" />
        <mxCell id="1" parent="0" />
        <mxCell id="-VZ79gezxidr2cajA8_d-1" value="Аня" style="shape=rectangle;whiteSpace=wrap;html=1;" vertex="1" parent="1">
          <mxGeometry x="20" y="50" width="120" height="40" as="geometry" />
        </mxCell>
        <mxCell id="-VZ79gezxidr2cajA8_d-2" value="Борис" style="shape=rectangle;whiteSpace=wrap;html=1;" vertex="1" parent="1">
          <mxGeometry x="260" y="450" width="120" height="40" as="geometry" />
        </mxCell>
        <mxCell id="-VZ79gezxidr2cajA8_d-3" value="Вика" style="shape=rectangle;whiteSpace=wrap;html=1;" vertex="1" parent="1">
          <mxGeometry x="320" y="20" width="120" height="40" as="geometry" />
        </mxCell>
        <mxCell id="-VZ79gezxidr2cajA8_d-4" value="Глеб" style="shape=rectangle;whiteSpace=wrap;html=1;" vertex="1" parent="1">
          <mxGeometry x="530" y="110" width="120" height="40" as="geometry" />
        </mxCell>
        <mxCell id="-VZ79gezxidr2cajA8_d-5" value="Дина" style="shape=rectangle;whiteSpace=wrap;html=1;" vertex="1" parent="1">
          <mxGeometry x="354" y="190" width="120" height="40" as="geometry" />
        </mxCell>
        <mxCell id="-VZ79gezxidr2cajA8_d-6" value="Егор" style="shape=rectangle;whiteSpace=wrap;html=1;" vertex="1" parent="1">
          <mxGeometry x="354" y="100" width="120" height="40" as="geometry" />
        </mxCell>
        <mxCell id="-VZ79gezxidr2cajA8_d-7" value="Женя" style="shape=rectangle;whiteSpace=wrap;html=1;" vertex="1" parent="1">
          <mxGeometry x="650" y="200" width="120" height="40" as="geometry" />
        </mxCell>
        <mxCell id="-VZ79gezxidr2cajA8_d-8" value="Зоя" style="shape=rectangle;whiteSpace=wrap;html=1;" vertex="1" parent="1">
          <mxGeometry x="670" y="10" width="120" height="40" as="geometry" />
        </mxCell>
        <mxCell id="-VZ79gezxidr2cajA8_d-9" value="Илья" style="shape=rectangle;whiteSpace=wrap;html=1;" vertex="1" parent="1">
          <mxGeometry x="180" y="190" width="120" height="40" as="geometry" />
        </mxCell>
        <mxCell id="-VZ79gezxidr2cajA8_d-10" value="Катя" style="shape=rectangle;whiteSpace=wrap;html=1;" vertex="1" parent="1">
          <mxGeometry x="180" y="110" width="120" height="40" as="geometry" />
        </mxCell>
        <mxCell id="-VZ79gezxidr2cajA8_d-11" value="дружит" style="endArrow=block;html=1;" edge="1" parent="1" source="-VZ79gezxidr2cajA8_d-1" target="-VZ79gezxidr2cajA8_d-2">
          <mxGeometry relative="1" as="geometry" />
        </mxCell>
        <mxCell id="-VZ79gezxidr2cajA8_d-12" value="дружит" style="endArrow=block;html=1;" edge="1" parent="1" source="-VZ79gezxidr2cajA8_d-1" target="-VZ79gezxidr2cajA8_d-3">
          <mxGeometry relative="1" as="geometry" />
        </mxCell>
        <mxCell id="-VZ79gezxidr2cajA8_d-13" value="дружит" style="endArrow=block;html=1;" edge="1" parent="1" source="-VZ79gezxidr2cajA8_d-2" target="-VZ79gezxidr2cajA8_d-4">
          <mxGeometry relative="1" as="geometry" />
        </mxCell>
        <mxCell id="-VZ79gezxidr2cajA8_d-14" value="дружит" style="endArrow=block;html=1;" edge="1" parent="1" source="-VZ79gezxidr2cajA8_d-2" target="-VZ79gezxidr2cajA8_d-5">
          <mxGeometry relative="1" as="geometry" />
        </mxCell>
        <mxCell id="-VZ79gezxidr2cajA8_d-15" value="дружит" style="endArrow=block;html=1;" edge="1" parent="1" source="-VZ79gezxidr2cajA8_d-3" target="-VZ79gezxidr2cajA8_d-6">
          <mxGeometry relative="1" as="geometry" />
        </mxCell>
        <mxCell id="-VZ79gezxidr2cajA8_d-16" value="дружит" style="endArrow=block;html=1;" edge="1" parent="1" source="-VZ79gezxidr2cajA8_d-3" target="-VZ79gezxidr2cajA8_d-1">
          <mxGeometry relative="1" as="geometry" />
        </mxCell>
        <mxCell id="-VZ79gezxidr2cajA8_d-17" value="дружит" style="endArrow=block;html=1;" edge="1" parent="1" source="-VZ79gezxidr2cajA8_d-4" target="-VZ79gezxidr2cajA8_d-5">
          <mxGeometry relative="1" as="geometry" />
        </mxCell>
        <mxCell id="-VZ79gezxidr2cajA8_d-18" value="дружит" style="endArrow=block;html=1;" edge="1" parent="1" source="-VZ79gezxidr2cajA8_d-4" target="-VZ79gezxidr2cajA8_d-7">
          <mxGeometry relative="1" as="geometry" />
        </mxCell>
        <mxCell id="-VZ79gezxidr2cajA8_d-19" value="дружит" style="endArrow=block;html=1;" edge="1" parent="1" source="-VZ79gezxidr2cajA8_d-4" target="-VZ79gezxidr2cajA8_d-8">
          <mxGeometry relative="1" as="geometry" />
        </mxCell>
        <mxCell id="-VZ79gezxidr2cajA8_d-20" value="дружит" style="endArrow=block;html=1;" edge="1" parent="1" source="-VZ79gezxidr2cajA8_d-5" target="-VZ79gezxidr2cajA8_d-9">
          <mxGeometry relative="1" as="geometry" />
        </mxCell>
        <mxCell id="-VZ79gezxidr2cajA8_d-21" value="дружит" style="endArrow=block;html=1;" edge="1" parent="1" source="-VZ79gezxidr2cajA8_d-6" target="-VZ79gezxidr2cajA8_d-10">
          <mxGeometry relative="1" as="geometry" />
        </mxCell>
        <mxCell id="-VZ79gezxidr2cajA8_d-22" value="дружит" style="endArrow=block;html=1;" edge="1" parent="1" source="-VZ79gezxidr2cajA8_d-6" target="-VZ79gezxidr2cajA8_d-3">
          <mxGeometry relative="1" as="geometry" />
        </mxCell>
        <mxCell id="-VZ79gezxidr2cajA8_d-23" value="дружит" style="endArrow=block;html=1;" edge="1" parent="1" source="-VZ79gezxidr2cajA8_d-10" target="-VZ79gezxidr2cajA8_d-1">
          <mxGeometry relative="1" as="geometry" />
        </mxCell>
      </root>
    </mxGraphModel>
  </diagram>
  <diagram name="Где живут" id="Env2WjKuXB1JNFXaMkNf">
    <mxGraphModel grid="1" page="1" gridSize="10" guides="1" tooltips="1" connect="1" arrows="1" fold="1" pageScale="1" pageWidth="827" pageHeight="1169" math="0" shadow="0">
      <root>
        <mxCell id="0" />
        <mxCell id="1" parent="0" />
        <mxCell id="c1" value="Москва" style="shape=rectangle;whiteSpace=wrap;html=1;" parent="1" vertex="1">
          <mxGeometry x="440" y="130" width="120" height="40" as="geometry" />
        </mxCell>
        <mxCell id="c2" value="Санкт-Петербург" style="shape=rectangle;whiteSpace=wrap;html=1;" parent="1" vertex="1">
          <mxGeometry x="540" y="280" width="120" height="40" as="geometry" />
        </mxCell>
        <mxCell id="c3" value="Казань" style="shape=rectangle;whiteSpace=wrap;html=1;" parent="1" vertex="1">
          <mxGeometry x="500" y="420" width="120" height="40" as="geometry" />
        </mxCell>
        <mxCell id="c5" value="Новосибирск" style="shape=rectangle;whiteSpace=wrap;html=1;" parent="1" vertex="1">
          <mxGeometry x="520" y="610" width="120" height="40" as="geometry" />
        </mxCell>
        <mxCell id="c9" value="Томск" style="shape=rectangle;whiteSpace=wrap;html=1;" parent="1" vertex="1">
          <mxGeometry x="520" y="680" width="120" height="40" as="geometry" />
        </mxCell>
        <mxCell id="s1" value="Аня" style="shape=rectangle;whiteSpace=wrap;html=1;" parent="1" vertex="1">
          <mxGeometry x="140" y="40" width="120" height="40" as="geometry" />
        </mxCell>
        <mxCell id="s2" value="Борис" style="shape=rectangle;whiteSpace=wrap;html=1;" parent="1" vertex="1">
          <mxGeometry x="280" y="290" width="120" height="40" as="geometry" />
        </mxCell>
        <mxCell id="s3" value="Вика" style="shape=rectangle;whiteSpace=wrap;html=1;" parent="1" vertex="1">
          <mxGeometry x="320" y="20" width="120" height="40" as="geometry" />
        </mxCell>
        <mxCell id="s4" value="Глеб" style="shape=rectangle;whiteSpace=wrap;html=1;" parent="1" vertex="1">
          <mxGeometry x="190" y="420" width="120" height="40" as="geometry" />
        </mxCell>
        <mxCell id="s5" value="Дина" style="shape=rectangle;whiteSpace=wrap;html=1;" parent="1" vertex="1">
          <mxGeometry x="320" y="370" width="120" height="40" as="geometry" />
        </mxCell>
        <mxCell id="s6" value="Егор" style="shape=rectangle;whiteSpace=wrap;html=1;" parent="1" vertex="1">
          <mxGeometry x="330" y="210" width="120" height="40" as="geometry" />
        </mxCell>
        <mxCell id="s7" value="Женя" style="shape=rectangle;whiteSpace=wrap;html=1;" parent="1" vertex="1">
          <mxGeometry x="190" y="600" width="120" height="40" as="geometry" />
        </mxCell>
        <mxCell id="s8" value="Зоя" style="shape=rectangle;whiteSpace=wrap;html=1;" parent="1" vertex="1">
          <mxGeometry x="210" y="540" width="120" height="40" as="geometry" />
        </mxCell>
        <mxCell id="s9" value="Илья" style="shape=rectangle;whiteSpace=wrap;html=1;" parent="1" vertex="1">
          <mxGeometry x="170" y="680" width="120" height="40" as="geometry" />
        </mxCell>
        <mxCell id="s10" value="Катя" style="shape=rectangle;whiteSpace=wrap;html=1;" parent="1" vertex="1">
          <mxGeometry x="140" y="140" width="120" height="40" as="geometry" />
        </mxCell>
        <mxCell id="e_l_1" value="живёт" style="endArrow=block;html=1;" parent="1" source="s1" target="c1" edge="1">
          <mxGeometry relative="1" as="geometry" />
        </mxCell>
        <mxCell id="e_l_2" value="живёт" style="endArrow=block;html=1;" parent="1" source="s3" target="c1" edge="1">
          <mxGeometry relative="1" as="geometry" />
        </mxCell>
        <mxCell id="e_l_3" value="живёт" style="endArrow=block;html=1;" parent="1" source="s10" target="c1" edge="1">
          <mxGeometry relative="1" as="geometry" />
        </mxCell>
        <mxCell id="e_l_4" value="живёт" style="endArrow=block;html=1;" parent="1" source="s2" target="c2" edge="1">
          <mxGeometry relative="1" as="geometry" />
        </mxCell>
        <mxCell id="e_l_5" value="живёт" style="endArrow=block;html=1;" parent="1" source="s6" target="c2" edge="1">
          <mxGeometry relative="1" as="geometry" />
        </mxCell>
        <mxCell id="e_l_6" value="живёт" style="endArrow=block;html=1;" parent="1" source="s4" target="c3" edge="1">
          <mxGeometry relative="1" as="geometry" />
        </mxCell>
        <mxCell id="e_l_7" value="живёт" style="endArrow=block;html=1;" parent="1" source="s5" target="c3" edge="1">
          <mxGeometry relative="1" as="geometry" />
        </mxCell>
        <mxCell id="e_l_8" value="живёт" style="endArrow=block;html=1;" parent="1" source="s7" target="c5" edge="1">
          <mxGeometry relative="1" as="geometry" />
        </mxCell>
        <mxCell id="e_l_9" value="живёт" style="endArrow=block;html=1;" parent="1" source="s8" target="c5" edge="1">
          <mxGeometry relative="1" as="geometry" />
        </mxCell>
        <mxCell id="e_l_10" value="живёт" style="endArrow=block;html=1;" parent="1" source="s9" target="c9" edge="1">
          <mxGeometry relative="1" as="geometry" />
        </mxCell>
      </root>
    </mxGraphModel>
  </diagram>
  <diagram name="Что изучают" id="3AVKRUptBLMeWDm1Q-AJ">
    <mxGraphModel grid="1" page="1" gridSize="10" guides="1" tooltips="1" connect="1" arrows="1" fold="1" pageScale="1" pageWidth="827" pageHeight="1169" math="0" shadow="0">
      <root>
        <mxCell id="0" />
        <mxCell id="1" parent="0" />
        <mxCell id="sub1" value="Математика" style="shape=rectangle;whiteSpace=wrap;html=1;" parent="1" vertex="1">
          <mxGeometry x="500" y="20" width="120" height="40" as="geometry" />
        </mxCell>
        <mxCell id="sub2" value="Физика" style="shape=rectangle;whiteSpace=wrap;html=1;" parent="1" vertex="1">
          <mxGeometry x="500" y="100" width="120" height="40" as="geometry" />
        </mxCell>
        <mxCell id="sub3" value="История" style="shape=rectangle;whiteSpace=wrap;html=1;" parent="1" vertex="1">
          <mxGeometry x="500" y="180" width="120" height="40" as="geometry" />
        </mxCell>
        <mxCell id="sub4" value="Информатика" style="shape=rectangle;whiteSpace=wrap;html=1;" parent="1" vertex="1">
          <mxGeometry x="500" y="260" width="120" height="40" as="geometry" />
        </mxCell>
        <mxCell id="sub5" value="Литература" style="shape=rectangle;whiteSpace=wrap;html=1;" parent="1" vertex="1">
          <mxGeometry x="500" y="340" width="120" height="40" as="geometry" />
        </mxCell>
        <mxCell id="sub6" value="Биология" style="shape=rectangle;whiteSpace=wrap;html=1;" parent="1" vertex="1">
          <mxGeometry x="500" y="420" width="120" height="40" as="geometry" />
        </mxCell>
        <mxCell id="sub7" value="Химия" style="shape=rectangle;whiteSpace=wrap;html=1;" parent="1" vertex="1">
          <mxGeometry x="500" y="500" width="120" height="40" as="geometry" />
        </mxCell>
        <mxCell id="sub9" value="География" style="shape=rectangle;whiteSpace=wrap;html=1;" parent="1" vertex="1">
          <mxGeometry x="500" y="580" width="120" height="40" as="geometry" />
        </mxCell>
        <mxCell id="sub10" value="Философия" style="shape=rectangle;whiteSpace=wrap;html=1;" parent="1" vertex="1">
          <mxGeometry x="500" y="660" width="120" height="40" as="geometry" />
        </mxCell>
        <mxCell id="s1" value="Аня" style="shape=rectangle;whiteSpace=wrap;html=1;" parent="1" vertex="1">
          <mxGeometry x="110" y="20" width="120" height="40" as="geometry" />
        </mxCell>
        <mxCell id="s2" value="Борис" style="shape=rectangle;whiteSpace=wrap;html=1;" parent="1" vertex="1">
          <mxGeometry x="80" y="120" width="120" height="40" as="geometry" />
        </mxCell>
        <mxCell id="s3" value="Вика" style="shape=rectangle;whiteSpace=wrap;html=1;" parent="1" vertex="1">
          <mxGeometry x="130" y="210" width="120" height="40" as="geometry" />
        </mxCell>
        <mxCell id="s4" value="Глеб" style="shape=rectangle;whiteSpace=wrap;html=1;" parent="1" vertex="1">
          <mxGeometry x="160" y="510" width="120" height="40" as="geometry" />
        </mxCell>
        <mxCell id="s5" value="Дина" style="shape=rectangle;whiteSpace=wrap;html=1;" parent="1" vertex="1">
          <mxGeometry x="140" y="400" width="120" height="40" as="geometry" />
        </mxCell>
        <mxCell id="s6" value="Егор" style="shape=rectangle;whiteSpace=wrap;html=1;" parent="1" vertex="1">
          <mxGeometry x="150" y="300" width="120" height="40" as="geometry" />
        </mxCell>
        <mxCell id="s7" value="Женя" style="shape=rectangle;whiteSpace=wrap;html=1;" parent="1" vertex="1">
          <mxGeometry x="660" y="470" width="120" height="40" as="geometry" />
        </mxCell>
        <mxCell id="s8" value="Зоя" style="shape=rectangle;whiteSpace=wrap;html=1;" parent="1" vertex="1">
          <mxGeometry x="680" y="400" width="120" height="40" as="geometry" />
        </mxCell>
        <mxCell id="s9" value="Илья" style="shape=rectangle;whiteSpace=wrap;html=1;" parent="1" vertex="1">
          <mxGeometry x="670" y="340" width="120" height="40" as="geometry" />
        </mxCell>
        <mxCell id="s10" value="Катя" style="shape=rectangle;whiteSpace=wrap;html=1;" parent="1" vertex="1">
          <mxGeometry x="160" y="610" width="120" height="40" as="geometry" />
        </mxCell>
        <mxCell id="e_s_1" value="изучает" style="endArrow=block;html=1;" parent="1" source="s1" target="sub1" edge="1">
          <mxGeometry relative="1" as="geometry" />
        </mxCell>
        <mxCell id="e_s_2" value="изучает" style="endArrow=block;html=1;" parent="1" source="s1" target="sub5" edge="1">
          <mxGeometry relative="1" as="geometry" />
        </mxCell>
        <mxCell id="e_s_3" value="изучает" style="endArrow=block;html=1;" parent="1" source="s2" target="sub2" edge="1">
          <mxGeometry relative="1" as="geometry" />
        </mxCell>
        <mxCell id="e_s_4" value="изучает" style="endArrow=block;html=1;" parent="1" source="s2" target="sub10" edge="1">
          <mxGeometry relative="1" as="geometry" />
        </mxCell>
        <mxCell id="e_s_5" value="изучает" style="endArrow=block;html=1;" parent="1" source="s3" target="sub3" edge="1">
          <mxGeometry relative="1" as="geometry" />
        </mxCell>
        <mxCell id="e_s_6" value="изучает" style="endArrow=block;html=1;" parent="1" source="s3" target="sub6" edge="1">
          <mxGeometry relative="1" as="geometry" />
        </mxCell>
        <mxCell id="e_s_7" value="изучает" style="endArrow=block;html=1;" parent="1" source="s4" target="sub4" edge="1">
          <mxGeometry relative="1" as="geometry" />
        </mxCell>
        <mxCell id="e_s_8" value="изучает" style="endArrow=block;html=1;" parent="1" source="s5" target="sub5" edge="1">
          <mxGeometry relative="1" as="geometry" />
        </mxCell>
        <mxCell id="e_s_9" value="изучает" style="endArrow=block;html=1;" parent="1" source="s5" target="sub7" edge="1">
          <mxGeometry relative="1" as="geometry" />
        </mxCell>
        <mxCell id="e_s_10" value="изучает" style="endArrow=block;html=1;" parent="1" source="s6" target="sub1" edge="1">
          <mxGeometry relative="1" as="geometry" />
        </mxCell>
        <mxCell id="e_s_11" value="изучает" style="endArrow=block;html=1;" parent="1" source="s6" target="sub4" edge="1">
          <mxGeometry relative="1" as="geometry" />
        </mxCell>
        <mxCell id="e_s_12" value="изучает" style="endArrow=block;html=1;" parent="1" source="s10" target="sub9" edge="1">
          <mxGeometry relative="1" as="geometry" />
        </mxCell>
        <mxCell id="e_s_13" value="изучает" style="endArrow=block;html=1;" parent="1" source="s10" target="sub10" edge="1">
          <mxGeometry relative="1" as="geometry" />
        </mxCell>
      </root>
    </mxGraphModel>
  </diagram>
</mxfile>
